<?xml version="1.0" standalone="no"?>
<svg xmlns:xlink="http://www.w3.org/1999/xlink" id="wave" style="transform:rotate(180deg); transition: 0.3s" viewBox="0 0 1440 490" version="1.1" xmlns="http://www.w3.org/2000/svg"><defs><linearGradient id="sw-gradient-0" x1="0" x2="0" y1="1" y2="0"><stop stop-color="rgba(0, 0, 0, 0.34)" offset="0%"/><stop stop-color="rgba(0, 0, 0, 0)" offset="100%"/></linearGradient></defs><path style="transform:translate(0, 0px); opacity:1" fill="url(#sw-gradient-0)" d="M0,294L240,310.3C480,327,960,359,1440,310.3C1920,261,2400,131,2880,98C3360,65,3840,131,4320,204.2C4800,278,5280,359,5760,343C6240,327,6720,212,7200,147C7680,82,8160,65,8640,114.3C9120,163,9600,278,10080,277.7C10560,278,11040,163,11520,114.3C12000,65,12480,82,12960,89.8C13440,98,13920,98,14400,89.8C14880,82,15360,65,15840,73.5C16320,82,16800,114,17280,179.7C17760,245,18240,343,18720,367.5C19200,392,19680,343,20160,277.7C20640,212,21120,131,21600,147C22080,163,22560,278,23040,302.2C23520,327,24000,261,24480,236.8C24960,212,25440,229,25920,269.5C26400,310,26880,376,27360,408.3C27840,441,28320,441,28800,424.7C29280,408,29760,376,30240,375.7C30720,376,31200,408,31680,383.8C32160,359,32640,278,33120,228.7C33600,180,34080,163,34320,155.2L34560,147L34560,490L34320,490C34080,490,33600,490,33120,490C32640,490,32160,490,31680,490C31200,490,30720,490,30240,490C29760,490,29280,490,28800,490C28320,490,27840,490,27360,490C26880,490,26400,490,25920,490C25440,490,24960,490,24480,490C24000,490,23520,490,23040,490C22560,490,22080,490,21600,490C21120,490,20640,490,20160,490C19680,490,19200,490,18720,490C18240,490,17760,490,17280,490C16800,490,16320,490,15840,490C15360,490,14880,490,14400,490C13920,490,13440,490,12960,490C12480,490,12000,490,11520,490C11040,490,10560,490,10080,490C9600,490,9120,490,8640,490C8160,490,7680,490,7200,490C6720,490,6240,490,5760,490C5280,490,4800,490,4320,490C3840,490,3360,490,2880,490C2400,490,1920,490,1440,490C960,490,480,490,240,490L0,490Z"/></svg>