<?xml version="1.0" standalone="no"?>
<svg xmlns:xlink="http://www.w3.org/1999/xlink" id="wave" style="transform:rotate(180deg); transition: 0.3s" viewBox="0 0 1440 200" version="1.1" xmlns="http://www.w3.org/2000/svg"><defs><linearGradient id="sw-gradient-0" x1="0" x2="0" y1="1" y2="0"><stop stop-color="rgba(0, 0, 0, 0.34)" offset="0%"/><stop stop-color="rgba(0, 0, 0, 0)" offset="100%"/></linearGradient></defs><path style="transform:translate(0, 0px); opacity:1" fill="url(#sw-gradient-0)" d="M0,120L240,126.7C480,133,960,147,1440,126.7C1920,107,2400,53,2880,40C3360,27,3840,53,4320,83.3C4800,113,5280,147,5760,140C6240,133,6720,87,7200,60C7680,33,8160,27,8640,46.7C9120,67,9600,113,10080,113.3C10560,113,11040,67,11520,46.7C12000,27,12480,33,12960,36.7C13440,40,13920,40,14400,36.7C14880,33,15360,27,15840,30C16320,33,16800,47,17280,73.3C17760,100,18240,140,18720,150C19200,160,19680,140,20160,113.3C20640,87,21120,53,21600,60C22080,67,22560,113,23040,123.3C23520,133,24000,107,24480,96.7C24960,87,25440,93,25920,110C26400,127,26880,153,27360,166.7C27840,180,28320,180,28800,173.3C29280,167,29760,153,30240,153.3C30720,153,31200,167,31680,156.7C32160,147,32640,113,33120,93.3C33600,73,34080,67,34320,63.3L34560,60L34560,200L34320,200C34080,200,33600,200,33120,200C32640,200,32160,200,31680,200C31200,200,30720,200,30240,200C29760,200,29280,200,28800,200C28320,200,27840,200,27360,200C26880,200,26400,200,25920,200C25440,200,24960,200,24480,200C24000,200,23520,200,23040,200C22560,200,22080,200,21600,200C21120,200,20640,200,20160,200C19680,200,19200,200,18720,200C18240,200,17760,200,17280,200C16800,200,16320,200,15840,200C15360,200,14880,200,14400,200C13920,200,13440,200,12960,200C12480,200,12000,200,11520,200C11040,200,10560,200,10080,200C9600,200,9120,200,8640,200C8160,200,7680,200,7200,200C6720,200,6240,200,5760,200C5280,200,4800,200,4320,200C3840,200,3360,200,2880,200C2400,200,1920,200,1440,200C960,200,480,200,240,200L0,200Z"/></svg>