<?xml version="1.0" standalone="no"?>
<svg xmlns:xlink="http://www.w3.org/1999/xlink" id="wave" style="transform:rotate(180deg); transition: 0.3s" viewBox="0 0 1440 210" version="1.1" xmlns="http://www.w3.org/2000/svg"><defs><linearGradient id="sw-gradient-0" x1="0" x2="0" y1="1" y2="0"><stop stop-color="rgba(0, 0, 0, 0.75)" offset="0%"/><stop stop-color="rgba(0, 0, 0, 0.36)" offset="100%"/></linearGradient></defs><path style="transform:translate(0, 0px); opacity:1" fill="url(#sw-gradient-0)" d="M0,126L120,133C240,140,480,154,720,133C960,112,1200,56,1440,42C1680,28,1920,56,2160,87.5C2400,119,2640,154,2880,147C3120,140,3360,91,3600,63C3840,35,4080,28,4320,49C4560,70,4800,119,5040,119C5280,119,5520,70,5760,49C6000,28,6240,35,6480,38.5C6720,42,6960,42,7200,38.5C7440,35,7680,28,7920,31.5C8160,35,8400,49,8640,77C8880,105,9120,147,9360,157.5C9600,168,9840,147,10080,119C10320,91,10560,56,10800,63C11040,70,11280,119,11520,129.5C11760,140,12000,112,12240,101.5C12480,91,12720,98,12960,115.5C13200,133,13440,161,13680,175C13920,189,14160,189,14400,182C14640,175,14880,161,15120,161C15360,161,15600,175,15840,164.5C16080,154,16320,119,16560,98C16800,77,17040,70,17160,66.5L17280,63L17280,210L17160,210C17040,210,16800,210,16560,210C16320,210,16080,210,15840,210C15600,210,15360,210,15120,210C14880,210,14640,210,14400,210C14160,210,13920,210,13680,210C13440,210,13200,210,12960,210C12720,210,12480,210,12240,210C12000,210,11760,210,11520,210C11280,210,11040,210,10800,210C10560,210,10320,210,10080,210C9840,210,9600,210,9360,210C9120,210,8880,210,8640,210C8400,210,8160,210,7920,210C7680,210,7440,210,7200,210C6960,210,6720,210,6480,210C6240,210,6000,210,5760,210C5520,210,5280,210,5040,210C4800,210,4560,210,4320,210C4080,210,3840,210,3600,210C3360,210,3120,210,2880,210C2640,210,2400,210,2160,210C1920,210,1680,210,1440,210C1200,210,960,210,720,210C480,210,240,210,120,210L0,210Z"/></svg>