<?xml version="1.0" standalone="no"?>
<svg xmlns:xlink="http://www.w3.org/1999/xlink" id="wave" style="transform:rotate(180deg); transition: 0.3s" viewBox="0 0 1440 490" version="1.1" xmlns="http://www.w3.org/2000/svg"><defs><linearGradient id="sw-gradient-0" x1="0" x2="0" y1="1" y2="0"><stop stop-color="rgba(55.377, 55.377, 55.377, 0.77)" offset="0%"/><stop stop-color="rgba(0, 0, 0, 0.53)" offset="100%"/></linearGradient></defs><path style="transform:translate(0, 0px); opacity:1" fill="url(#sw-gradient-0)" d="M0,294L80,310.3C160,327,320,359,480,310.3C640,261,800,131,960,98C1120,65,1280,131,1440,204.2C1600,278,1760,359,1920,343C2080,327,2240,212,2400,147C2560,82,2720,65,2880,114.3C3040,163,3200,278,3360,277.7C3520,278,3680,163,3840,114.3C4000,65,4160,82,4320,89.8C4480,98,4640,98,4800,89.8C4960,82,5120,65,5280,73.5C5440,82,5600,114,5760,179.7C5920,245,6080,343,6240,367.5C6400,392,6560,343,6720,277.7C6880,212,7040,131,7200,147C7360,163,7520,278,7680,302.2C7840,327,8000,261,8160,236.8C8320,212,8480,229,8640,269.5C8800,310,8960,376,9120,408.3C9280,441,9440,441,9600,424.7C9760,408,9920,376,10080,375.7C10240,376,10400,408,10560,383.8C10720,359,10880,278,11040,228.7C11200,180,11360,163,11440,155.2L11520,147L11520,490L11440,490C11360,490,11200,490,11040,490C10880,490,10720,490,10560,490C10400,490,10240,490,10080,490C9920,490,9760,490,9600,490C9440,490,9280,490,9120,490C8960,490,8800,490,8640,490C8480,490,8320,490,8160,490C8000,490,7840,490,7680,490C7520,490,7360,490,7200,490C7040,490,6880,490,6720,490C6560,490,6400,490,6240,490C6080,490,5920,490,5760,490C5600,490,5440,490,5280,490C5120,490,4960,490,4800,490C4640,490,4480,490,4320,490C4160,490,4000,490,3840,490C3680,490,3520,490,3360,490C3200,490,3040,490,2880,490C2720,490,2560,490,2400,490C2240,490,2080,490,1920,490C1760,490,1600,490,1440,490C1280,490,1120,490,960,490C800,490,640,490,480,490C320,490,160,490,80,490L0,490Z"/></svg>